<?xml version="1.0" encoding="UTF-8"?>
<svg xmlns="http://www.w3.org/2000/svg" xmlns:xlink="http://www.w3.org/1999/xlink" width="276pt" height="231pt" viewBox="0 0 276 231" version="1.1">
<g id="surface1">
<path style=" stroke:none;fill-rule:evenodd;fill:rgb(100%,100%,100%);fill-opacity:1;" d="M 174.1875 65.636719 L 86.777344 65.621094 L 86.777344 104.828125 L 86.785156 119 C 87.054688 130.148438 90.773438 146.296875 100.199219 157.890625 C 107.96875 168.023438 118.460938 176.171875 130.59375 180.695312 C 142.769531 176.15625 153.089844 168.113281 160.742188 157.925781 L 160.78125 157.949219 C 170.207031 146.355469 173.925781 130.207031 174.183594 119.148438 L 174.171875 104.835938 L 174.1875 104.835938 L 174.1875 65.636719 M 130.53125 136.226562 L 133.554688 138.394531 L 130.511719 136.21875 L 174.125 104.835938 L 174.148438 104.835938 Z M 130.53125 136.226562 "/>
<path style="fill:none;stroke-width:0.62;stroke-linecap:round;stroke-linejoin:round;stroke:rgb(100%,100%,100%);stroke-opacity:1;stroke-miterlimit:3.864;" d="M 537.709239 202.308847 L 267.877887 202.260687 L 267.877887 323.106602 L 267.902004 366.787879 C 268.734035 401.150162 280.213655 450.923701 309.310632 486.65855 C 333.294837 517.890422 365.683764 543.005952 403.137228 556.948323 C 440.723336 542.957792 472.581692 518.167343 496.204144 486.76691 L 496.324728 486.83915 C 525.421705 451.104302 536.901325 401.330763 537.697181 367.2454 L 537.661005 323.130682 L 537.709239 323.130682 Z M 402.944293 419.88447 L 412.277514 426.566694 L 402.884001 419.86039 L 537.516304 323.130682 L 537.588655 323.130682 Z M 402.944293 419.88447 " transform="matrix(0.323944,0,0,0.324438,0,0)"/>
<path style=" stroke:none;fill-rule:evenodd;fill:rgb(0%,30.980392%,63.921569%);fill-opacity:1;" d="M 130.53125 136.226562 L 174.171875 104.820312 L 174.183594 119.148438 C 173.925781 130.207031 170.207031 146.355469 160.78125 157.949219 L 130.53125 136.226562 "/>
<path style=" stroke:none;fill-rule:evenodd;fill:rgb(0%,30.980392%,63.921569%);fill-opacity:1;" d="M 130.511719 136.21875 L 86.777344 104.726562 L 86.785156 119 C 87.054688 130.148438 90.773438 146.296875 100.199219 157.890625 L 130.511719 136.21875 "/>
<path style=" stroke:none;fill-rule:evenodd;fill:rgb(79.215686%,79.607843%,80.392157%);fill-opacity:1;" d="M 130.511719 136.21875 L 86.777344 104.828125 L 86.949219 104.550781 L 173.953125 104.449219 L 174.140625 104.820312 L 130.511719 136.21875 "/>
<path style=" stroke:none;fill-rule:evenodd;fill:rgb(93.72549%,24.313725%,20%);fill-opacity:1;" d="M 174.1875 104.835938 L 174.1875 65.636719 L 86.777344 65.621094 L 86.777344 104.828125 L 174.1875 104.835938 "/>
<path style=" stroke:none;fill-rule:nonzero;fill:rgb(79.215686%,79.607843%,80.392157%);fill-opacity:1;" d="M 12.535156 83.429688 C 16.863281 80.824219 22.476562 82.226562 25.074219 86.566406 C 27.671875 90.898438 26.273438 96.527344 21.945312 99.132812 C 17.621094 101.734375 12.007812 100.332031 9.40625 95.996094 C 6.808594 91.660156 8.207031 86.03125 12.535156 83.429688 "/>
<path style=" stroke:none;fill-rule:nonzero;fill:rgb(79.215686%,79.607843%,80.392157%);fill-opacity:1;" d="M 6.382812 106.363281 C 10.375 103.960938 15.558594 105.253906 17.957031 109.253906 C 20.355469 113.257812 19.0625 118.449219 15.070312 120.855469 C 11.074219 123.261719 5.894531 121.964844 3.496094 117.960938 C 1.09375 113.960938 2.390625 108.765625 6.382812 106.363281 "/>
<path style=" stroke:none;fill-rule:nonzero;fill:rgb(79.215686%,79.607843%,80.392157%);fill-opacity:1;" d="M 4.941406 129.191406 C 8.601562 126.984375 13.355469 128.175781 15.554688 131.84375 C 17.753906 135.511719 16.566406 140.273438 12.902344 142.472656 C 9.242188 144.679688 4.496094 143.488281 2.292969 139.820312 C 0.0976562 136.152344 1.28125 131.390625 4.941406 129.191406 "/>
<path style=" stroke:none;fill-rule:nonzero;fill:rgb(79.215686%,79.607843%,80.392157%);fill-opacity:1;" d="M 7.085938 149.671875 C 10.414062 147.667969 14.734375 148.746094 16.730469 152.082031 C 18.730469 155.417969 17.652344 159.746094 14.328125 161.75 C 10.996094 163.753906 6.679688 162.675781 4.679688 159.335938 C 2.679688 156.003906 3.757812 151.671875 7.085938 149.671875 "/>
<path style=" stroke:none;fill-rule:nonzero;fill:rgb(79.215686%,79.607843%,80.392157%);fill-opacity:1;" d="M 12.085938 168.882812 C 15.082031 167.078125 18.964844 168.050781 20.765625 171.050781 C 22.5625 174.054688 21.59375 177.949219 18.597656 179.75 C 15.605469 181.554688 11.71875 180.585938 9.921875 177.582031 C 8.117188 174.582031 9.089844 170.6875 12.085938 168.882812 "/>
<path style=" stroke:none;fill-rule:evenodd;fill:rgb(79.215686%,79.607843%,80.392157%);fill-opacity:1;" d="M 160.773438 157.890625 L 130.511719 136.21875 L 100.203125 157.890625 C 107.96875 168.023438 118.460938 176.171875 130.59375 180.695312 C 142.785156 176.148438 153.113281 168.09375 160.773438 157.890625 "/>
<path style=" stroke:none;fill-rule:nonzero;fill:rgb(100%,100%,100%);fill-opacity:1;" d="M 249.546875 82.679688 C 256.640625 98.558594 260.644531 116.117188 260.796875 134.59375 L 274.808594 134.582031 L 274.796875 136.136719 L 248.195312 136.125 C 248.074219 118.699219 244.488281 102.589844 237.890625 87.921875 L 249.546875 82.679688 "/>
<path style=" stroke:none;fill-rule:nonzero;fill:rgb(79.215686%,79.607843%,80.392157%);fill-opacity:1;" d="M 249.546875 82.679688 C 256.640625 98.558594 260.644531 116.117188 260.796875 134.59375 L 274.808594 134.582031 L 274.796875 136.136719 L 248.195312 136.125 C 248.074219 118.699219 244.488281 102.589844 237.890625 87.921875 Z M 249.546875 82.679688 "/>
<path style=" stroke:none;fill-rule:evenodd;fill:rgb(0%,30.980392%,63.921569%);fill-opacity:1;" d="M 38.035156 59.410156 C 40.589844 61.902344 42.695312 61.09375 44.890625 58.644531 C 45.910156 57.5 46.832031 55.867188 46.445312 54.304688 C 46.125 52.972656 45.136719 51.777344 43.996094 50.753906 L 38.054688 45.421875 C 36.972656 44.449219 36.5 44.632812 35.480469 45.773438 L 35.191406 46.058594 L 34.632812 45.554688 C 35.359375 44.855469 36.070312 44.144531 36.734375 43.394531 C 37.40625 42.644531 38.039062 41.863281 38.636719 41.082031 L 39.199219 41.585938 L 38.949219 41.902344 C 37.890625 43.082031 37.742188 43.589844 38.828125 44.5625 L 45.71875 50.75 C 46.746094 51.671875 47.316406 52.652344 47.710938 54.023438 C 47.972656 54.933594 47.839844 56.433594 47.464844 57.308594 C 47.070312 58.238281 46.265625 59.441406 45.59375 60.1875 C 44.070312 61.890625 41.984375 63.695312 39.515625 63.101562 C 38.257812 62.816406 37.585938 62.210938 36.648438 61.371094 L 29.925781 55.332031 C 28.464844 54.023438 28.351562 53.886719 26.652344 55.601562 L 26.09375 55.09375 C 26.902344 54.304688 27.726562 53.460938 28.546875 52.542969 C 29.367188 51.625 30.117188 50.714844 30.863281 49.765625 L 31.425781 50.269531 C 29.910156 52.148438 30.058594 52.246094 31.515625 53.554688 L 38.035156 59.410156 "/>
<path style=" stroke:none;fill-rule:evenodd;fill:rgb(0%,30.980392%,63.921569%);fill-opacity:1;" d="M 64.847656 39.152344 L 57.304688 29.210938 C 56.421875 28.046875 55.925781 28.144531 54.707031 29.070312 L 54.375 29.292969 L 53.917969 28.691406 C 54.761719 28.144531 55.59375 27.578125 56.390625 26.96875 C 57.1875 26.363281 57.957031 25.710938 58.691406 25.058594 L 59.148438 25.660156 L 58.84375 25.921875 C 57.585938 26.882812 57.34375 27.351562 58.222656 28.511719 L 67.011719 40.09375 L 67.628906 40.792969 L 65.839844 41.714844 L 47.28125 37.308594 L 54.6875 47.074219 C 55.566406 48.234375 56.082031 48.125 57.34375 47.167969 L 57.679688 46.941406 L 58.132812 47.546875 C 57.308594 48.074219 56.476562 48.644531 55.679688 49.25 C 54.878906 49.859375 54.113281 50.507812 53.359375 51.179688 L 52.902344 50.578125 L 53.210938 50.3125 C 54.429688 49.386719 54.648438 48.933594 53.769531 47.769531 L 46.132812 37.707031 C 45.253906 36.546875 44.796875 36.609375 43.664062 37.441406 L 43.386719 37.652344 L 42.925781 37.054688 C 43.550781 36.675781 44.140625 36.285156 44.742188 35.832031 C 45.320312 35.390625 45.851562 34.925781 46.382812 34.421875 L 64.847656 39.152344 "/>
<path style=" stroke:none;fill-rule:evenodd;fill:rgb(0%,30.980392%,63.921569%);fill-opacity:1;" d="M 74.867188 32.777344 C 75.8125 34.496094 75.875 34.664062 78.042969 33.605469 L 78.40625 34.261719 C 77.316406 34.78125 76.261719 35.308594 75.183594 35.90625 C 74.109375 36.5 73.101562 37.117188 72.148438 37.730469 L 71.785156 37.070312 C 73.835938 35.792969 73.726562 35.652344 72.777344 33.9375 L 67.203125 23.839844 C 66.257812 22.128906 66.195312 21.960938 64.027344 23.019531 L 63.664062 22.359375 C 64.6875 21.878906 65.742188 21.351562 66.820312 20.753906 C 67.894531 20.160156 68.902344 19.542969 69.921875 18.894531 L 70.285156 19.550781 C 68.234375 20.828125 68.34375 20.972656 69.289062 22.6875 L 74.867188 32.777344 "/>
<path style=" stroke:none;fill-rule:evenodd;fill:rgb(0%,30.980392%,63.921569%);fill-opacity:1;" d="M 76.714844 18.152344 C 75.707031 17.089844 75.855469 16.925781 74.5 17.246094 L 74.046875 17.398438 L 73.769531 16.699219 C 74.824219 16.363281 75.867188 16.003906 76.917969 15.585938 C 77.964844 15.167969 78.976562 14.714844 79.972656 14.238281 L 80.25 14.9375 C 77.992188 15.78125 78.308594 16.167969 78.65625 16.574219 L 80.570312 18.8125 L 87.855469 26.601562 L 87.902344 17.773438 L 87.789062 14.546875 C 87.738281 13.054688 88.054688 11.738281 85.289062 12.941406 L 85.011719 12.242188 C 85.882812 11.976562 86.714844 11.699219 87.578125 11.359375 C 88.445312 11.015625 89.242188 10.648438 90.054688 10.242188 L 90.332031 10.945312 C 88.800781 11.441406 89.09375 12.324219 89.082031 13.519531 L 88.980469 24.667969 L 89.03125 29.648438 L 87.863281 30.109375 L 86.753906 28.792969 L 85.09375 26.992188 L 76.714844 18.152344 "/>
<path style=" stroke:none;fill-rule:evenodd;fill:rgb(0%,30.980392%,63.921569%);fill-opacity:1;" d="M 101.003906 22.042969 C 101.210938 22.921875 101.375 23.503906 101.621094 24.117188 C 102.554688 24.023438 103.800781 23.726562 104.96875 23.449219 C 106.289062 23.132812 107.617188 22.765625 108.800781 22.097656 C 108.835938 21.699219 108.851562 21.230469 108.800781 20.78125 L 108.703125 19.386719 L 109.503906 19.195312 C 109.53125 19.726562 109.546875 20.449219 109.730469 21.230469 L 110.210938 23.261719 C 109.335938 23.597656 107.695312 23.964844 106.1875 24.347656 C 104.726562 24.613281 103.253906 24.917969 101.765625 25.269531 C 100.277344 25.621094 98.847656 26.011719 97.378906 26.441406 L 97.199219 25.707031 C 98.410156 25.371094 99.167969 24.648438 98.78125 23.007812 L 96.117188 11.789062 C 95.667969 9.878906 95.648438 9.703125 93.277344 10.140625 L 93.101562 9.40625 C 94.609375 9.125 96.085938 8.824219 97.597656 8.464844 C 99.113281 8.101562 100.589844 7.699219 102.039062 7.28125 C 103.582031 6.941406 105.261719 6.515625 106.117188 6.4375 C 106.042969 7.308594 106.128906 8.117188 106.292969 8.902344 C 106.410156 9.417969 106.441406 9.847656 106.558594 10.363281 L 105.804688 10.542969 C 105.550781 9.59375 105.246094 8.945312 104.894531 8.230469 C 103.636719 8.140625 102.375 8.390625 101.15625 8.679688 C 100.085938 8.933594 98.9375 9.203125 98.160156 9.523438 C 98.207031 10.152344 98.316406 10.722656 98.519531 11.582031 L 99.601562 16.148438 C 104.9375 14.929688 105.347656 15.144531 104.804688 12.742188 L 105.609375 12.550781 L 106.949219 18.199219 L 106.144531 18.390625 C 105.488281 15.628906 105.351562 15.816406 99.882812 17.324219 L 101.003906 22.042969 "/>
<path style=" stroke:none;fill-rule:evenodd;fill:rgb(0%,30.980392%,63.921569%);fill-opacity:1;" d="M 115.761719 7.953125 C 115.625 6 115.636719 5.820312 113.226562 5.867188 L 113.171875 5.117188 C 114.578125 5.089844 116.035156 5.039062 117.507812 4.929688 C 118.988281 4.824219 120.433594 4.667969 121.878906 4.488281 C 125.320312 4.0625 127.058594 5.828125 127.207031 7.933594 C 127.402344 10.664062 125.074219 12.472656 122.675781 13.121094 L 128.890625 20.128906 C 129.324219 20.578125 129.863281 20.691406 130.371094 20.730469 L 130.425781 21.480469 C 129.867188 21.445312 129.289062 21.441406 128.714844 21.480469 C 128.136719 21.519531 127.589844 21.609375 127.019531 21.726562 C 126.582031 21.226562 126.273438 20.800781 125.890625 20.398438 L 119.386719 13.15625 L 119.457031 12.773438 C 120.238281 12.769531 121.011719 12.6875 121.753906 12.507812 C 123.484375 12.082031 124.890625 10.621094 124.753906 8.765625 C 124.558594 6.058594 122.5 5.402344 120.644531 5.535156 C 119.773438 5.597656 118.828125 5.792969 118.167969 6.039062 C 118.050781 6.476562 118.085938 7.003906 118.144531 7.78125 L 118.96875 19.285156 C 119.109375 21.242188 119.101562 21.417969 121.511719 21.367188 L 121.5625 22.121094 C 120.355469 22.132812 119.179688 22.167969 117.953125 22.253906 C 116.722656 22.34375 115.550781 22.480469 114.429688 22.636719 L 114.375 21.882812 C 116.773438 21.585938 116.734375 21.410156 116.59375 19.457031 L 115.761719 7.953125 "/>
<path style=" stroke:none;fill-rule:evenodd;fill:rgb(0%,30.980392%,63.921569%);fill-opacity:1;" d="M 143.996094 9.09375 C 144.066406 8.140625 144.117188 7.488281 143.894531 7.066406 C 143.300781 5.964844 141.554688 5.429688 140.378906 5.339844 C 138.328125 5.183594 136.46875 6.476562 136.304688 8.632812 C 135.890625 14.070312 146.191406 10.316406 145.714844 16.605469 C 145.390625 20.890625 141.40625 22.65625 137.675781 22.371094 C 136.175781 22.253906 134.800781 21.773438 133.46875 21.09375 C 133.644531 20.148438 133.785156 18.949219 133.886719 17.976562 L 133.9375 17.269531 L 134.789062 17.335938 L 134.699219 18.515625 C 134.65625 19.066406 134.671875 19.546875 134.949219 19.847656 C 135.882812 20.800781 137.464844 21.195312 138.742188 21.292969 C 140.992188 21.464844 143.292969 20.304688 143.484375 17.824219 C 143.941406 11.757812 133.605469 16.667969 134.160156 9.375 C 134.417969 5.941406 137.488281 3.984375 140.710938 4.230469 C 142.417969 4.363281 143.949219 5.03125 145.480469 5.75 C 145.375 6.148438 145.246094 6.539062 145.1875 6.9375 C 145.082031 7.6875 144.925781 8.40625 144.84375 9.15625 L 143.996094 9.09375 "/>
<path style=" stroke:none;fill-rule:evenodd;fill:rgb(0%,30.980392%,63.921569%);fill-opacity:1;" d="M 154.257812 21.179688 C 153.882812 23.101562 153.824219 23.269531 156.164062 23.855469 L 156.023438 24.59375 C 154.851562 24.289062 153.707031 24.015625 152.496094 23.78125 C 151.292969 23.542969 150.125 23.363281 149.003906 23.222656 L 149.148438 22.480469 C 151.535156 22.820312 151.542969 22.640625 151.921875 20.71875 L 154.132812 9.398438 C 154.507812 7.476562 154.5625 7.308594 152.222656 6.722656 L 152.371094 5.980469 C 153.464844 6.273438 154.609375 6.550781 155.816406 6.785156 C 157.023438 7.023438 158.191406 7.199219 159.386719 7.359375 L 159.242188 8.097656 C 156.855469 7.757812 156.847656 7.933594 156.46875 9.859375 L 154.257812 21.179688 "/>
<path style=" stroke:none;fill-rule:evenodd;fill:rgb(0%,30.980392%,63.921569%);fill-opacity:1;" d="M 169.625 14.121094 C 169.902344 13.203125 170.15625 12.441406 170.320312 11.703125 L 166.613281 10.601562 C 166.105469 10.460938 165.796875 10.4375 165.542969 11.042969 C 165.257812 11.582031 164.910156 12.15625 164.675781 12.789062 L 163.960938 12.554688 C 164.109375 12.101562 164.253906 11.667969 164.378906 11.210938 C 164.628906 10.367188 164.882812 9.527344 165.105469 8.621094 C 167.34375 9.441406 169.589844 10.242188 171.921875 11.019531 C 174.230469 11.785156 176.511719 12.488281 178.84375 13.183594 C 178.480469 14.042969 178.179688 14.871094 177.878906 15.695312 C 177.703125 16.140625 177.5625 16.574219 177.414062 17.027344 L 176.703125 16.789062 C 176.890625 16.136719 176.953125 15.46875 177.046875 14.867188 C 177.203125 14.226562 176.941406 14.0625 176.449219 13.871094 L 172.773438 12.519531 C 172.464844 13.210938 172.210938 13.972656 171.886719 14.871094 L 168.503906 25.078125 C 167.890625 26.941406 167.816406 27.097656 170.058594 27.976562 L 169.820312 28.691406 C 168.703125 28.242188 167.597656 27.824219 166.429688 27.433594 C 165.265625 27.046875 164.128906 26.722656 163.035156 26.4375 L 163.273438 25.722656 C 165.597656 26.359375 165.628906 26.1875 166.246094 24.328125 L 169.625 14.121094 "/>
<path style=" stroke:none;fill-rule:evenodd;fill:rgb(0%,30.980392%,63.921569%);fill-opacity:1;" d="M 206.054688 49.472656 C 202.300781 46.214844 203.757812 41.390625 206.636719 38.070312 C 209.332031 34.957031 212.820312 33.960938 216.117188 36.828125 C 219.640625 39.890625 219.160156 43.863281 215.902344 47.621094 C 212.875 51.113281 209.402344 52.015625 206.054688 49.472656 M 217.128906 36.277344 C 212.78125 32.394531 207.421875 33.0625 204.066406 36.933594 C 200.316406 41.261719 200.894531 46.421875 204.742188 49.761719 C 208.890625 53.371094 214.902344 52.875 218.4375 48.792969 C 222.089844 44.582031 221.179688 39.800781 217.128906 36.277344 Z M 217.128906 36.277344 "/>
<path style=" stroke:none;fill-rule:evenodd;fill:rgb(0%,30.980392%,63.921569%);fill-opacity:1;" d="M 226.453125 50.148438 C 227.949219 48.882812 228.097656 48.792969 226.644531 46.867188 L 227.21875 46.378906 C 228.148438 47.601562 229.078125 48.785156 230.078125 49.976562 C 231.082031 51.167969 232.105469 52.3125 233.132812 53.414062 C 234.136719 54.644531 235.269531 55.949219 235.71875 56.683594 C 234.910156 57.011719 234.226562 57.449219 233.601562 57.949219 C 233.195312 58.289062 232.824219 58.507812 232.417969 58.84375 L 231.917969 58.25 C 232.648438 57.601562 233.089844 57.03125 233.570312 56.394531 C 233.082031 55.230469 232.296875 54.21875 231.488281 53.257812 C 230.777344 52.410156 230.023438 51.507812 229.390625 50.953125 C 229.015625 51.167969 228.621094 51.441406 228.0625 51.910156 L 224.125 55.226562 C 227.613281 59.449219 227.609375 59.914062 229.503906 58.34375 L 230.039062 58.980469 L 225.605469 62.71875 L 225.070312 62.085938 C 227.242188 60.253906 227.011719 60.21875 223.203125 56.003906 L 219.175781 59.402344 C 217.679688 60.664062 217.527344 60.761719 218.984375 62.683594 L 218.410156 63.167969 C 217.691406 62.199219 216.96875 61.265625 216.175781 60.320312 C 215.382812 59.378906 214.585938 58.511719 213.804688 57.691406 L 214.378906 57.207031 C 216.027344 58.972656 216.144531 58.835938 217.644531 57.578125 L 226.453125 50.148438 "/>
<path style=" stroke:none;fill-rule:evenodd;fill:rgb(0%,30.980392%,63.921569%);fill-opacity:1;" d="M 50.023438 207.121094 C 50.023438 205.8125 50.058594 204.871094 50.167969 204.035156 C 51.800781 203.960938 53.394531 203.8125 54.992188 203.8125 C 61.230469 203.8125 65.945312 206.761719 65.945312 214.421875 C 65.945312 221.074219 62.828125 226.226562 53.574219 225.980469 C 52.269531 225.941406 51.179688 225.867188 50.167969 225.722656 C 50.023438 224.78125 50.023438 223.6875 50.023438 222.636719 L 50.023438 207.121094 M 46.605469 224.308594 C 46.605469 225.871094 45.988281 226.226562 44.683594 226.476562 L 44.683594 227.550781 C 46.28125 227.441406 47.878906 227.375 49.511719 227.375 C 51.144531 227.375 52.742188 227.441406 54.339844 227.550781 C 63.046875 228.128906 69.765625 222.089844 69.765625 213.335938 C 69.765625 206.285156 64.238281 202.113281 57.492188 202.1875 C 55.171875 202.296875 52.851562 202.363281 50.457031 202.363281 C 48.0625 202.363281 45.734375 202.296875 43.414062 202.1875 L 43.414062 203.308594 C 46.28125 203.347656 46.605469 203.5625 46.605469 206.976562 Z M 46.605469 224.308594 "/>
<path style=" stroke:none;fill-rule:evenodd;fill:rgb(0%,30.980392%,63.921569%);fill-opacity:1;" d="M 80.917969 219.183594 C 80.703125 224.324219 83.601562 225.808594 88.351562 225.808594 C 90.5625 225.808594 93.210938 225.230469 94.515625 223.3125 C 95.640625 221.683594 95.96875 219.472656 95.96875 217.265625 L 95.96875 205.75 C 95.96875 203.648438 95.316406 203.324219 93.101562 203.324219 L 92.523438 203.285156 L 92.523438 202.195312 C 93.972656 202.304688 95.421875 202.355469 96.878906 202.355469 C 98.332031 202.355469 99.78125 202.304688 101.195312 202.195312 L 101.195312 203.285156 L 100.613281 203.324219 C 98.332031 203.324219 97.640625 203.648438 97.640625 205.75 L 97.640625 219.109375 C 97.640625 221.101562 97.132812 222.660156 96.039062 224.394531 C 95.316406 225.554688 93.570312 226.867188 92.269531 227.300781 C 90.890625 227.777344 88.824219 228.070312 87.375 228.070312 C 84.074219 228.070312 80.125 227.558594 78.394531 224.324219 C 77.492188 222.695312 77.492188 221.390625 77.492188 219.582031 L 77.492188 206.546875 C 77.492188 203.722656 77.527344 203.46875 74.050781 203.285156 L 74.050781 202.195312 C 75.679688 202.304688 77.382812 202.355469 79.152344 202.355469 C 80.917969 202.355469 82.625 202.304688 84.363281 202.195312 L 84.363281 203.285156 C 80.882812 203.46875 80.917969 203.722656 80.917969 206.546875 L 80.917969 219.183594 "/>
<path style=" stroke:none;fill-rule:evenodd;fill:rgb(0%,30.980392%,63.921569%);fill-opacity:1;" d="M 128.6875 223.765625 L 128.6875 205.75 C 128.6875 203.648438 128.035156 203.324219 125.824219 203.324219 L 125.242188 203.285156 L 125.242188 202.195312 C 126.695312 202.304688 128.144531 202.375 129.597656 202.375 C 131.050781 202.375 132.5 202.304688 133.914062 202.195312 L 133.914062 203.285156 L 133.335938 203.324219 C 131.050781 203.324219 130.363281 203.648438 130.363281 205.75 L 130.363281 226.738281 L 130.46875 228.089844 L 127.601562 227.582031 L 110.09375 206.296875 L 110.09375 223.984375 C 110.09375 226.085938 110.78125 226.410156 113.066406 226.410156 L 113.648438 226.449219 L 113.648438 227.542969 C 112.234375 227.433594 110.78125 227.378906 109.328125 227.378906 C 107.875 227.378906 106.425781 227.433594 104.976562 227.542969 L 104.976562 226.449219 L 105.554688 226.410156 C 107.769531 226.410156 108.421875 226.085938 108.421875 223.984375 L 108.421875 205.75 C 108.421875 203.648438 107.839844 203.324219 105.808594 203.285156 L 105.304688 203.285156 L 105.304688 202.195312 C 106.355469 202.304688 107.371094 202.355469 108.457031 202.355469 C 109.507812 202.355469 110.527344 202.304688 111.582031 202.195312 L 128.6875 223.765625 "/>
<path style=" stroke:none;fill-rule:evenodd;fill:rgb(0%,30.980392%,63.921569%);fill-opacity:1;" d="M 145.082031 207.121094 C 145.082031 205.8125 145.121094 204.871094 145.230469 204.035156 C 146.859375 203.960938 148.457031 203.8125 150.054688 203.8125 C 156.292969 203.8125 161.007812 206.761719 161.007812 214.421875 C 161.007812 221.074219 157.886719 226.226562 148.640625 225.980469 C 147.332031 225.941406 146.246094 225.867188 145.230469 225.722656 C 145.082031 224.78125 145.082031 223.6875 145.082031 222.636719 L 145.082031 207.121094 M 141.667969 224.308594 C 141.667969 225.871094 141.054688 226.226562 139.75 226.476562 L 139.75 227.550781 C 141.339844 227.441406 142.9375 227.375 144.578125 227.375 C 146.207031 227.375 147.804688 227.441406 149.398438 227.550781 C 158.105469 228.128906 164.832031 222.089844 164.832031 213.335938 C 164.832031 206.285156 159.304688 202.113281 152.558594 202.1875 C 150.234375 202.296875 147.914062 202.363281 145.519531 202.363281 C 143.121094 202.363281 140.796875 202.296875 138.480469 202.1875 L 138.480469 203.308594 C 141.339844 203.347656 141.671875 203.5625 141.671875 206.976562 L 141.671875 224.308594 Z M 141.667969 224.308594 "/>
<path style=" stroke:none;fill-rule:evenodd;fill:rgb(0%,30.980392%,63.921569%);fill-opacity:1;" d="M 176.386719 222.566406 C 176.386719 223.871094 176.425781 224.742188 176.570312 225.6875 C 177.90625 225.867188 179.753906 225.867188 181.492188 225.867188 C 183.449219 225.867188 185.4375 225.792969 187.3125 225.25 C 187.492188 224.707031 187.671875 224.054688 187.738281 223.402344 L 188.0625 221.40625 L 189.257812 221.40625 C 189.113281 222.167969 188.894531 223.183594 188.894531 224.34375 L 188.894531 227.363281 C 187.566406 227.546875 185.148438 227.507812 182.90625 227.546875 C 180.769531 227.4375 178.597656 227.378906 176.386719 227.378906 C 174.1875 227.378906 172.054688 227.4375 169.84375 227.546875 L 169.84375 226.449219 C 171.65625 226.378906 172.960938 225.613281 172.960938 223.183594 L 172.960938 206.546875 C 172.960938 203.722656 172.996094 203.46875 169.519531 203.289062 L 169.519531 202.195312 C 171.730469 202.304688 173.898438 202.355469 176.136719 202.355469 C 178.382812 202.355469 180.585938 202.304688 182.757812 202.195312 C 185.042969 202.230469 187.527344 202.195312 188.75 202.378906 C 188.351562 203.582031 188.207031 204.738281 188.171875 205.898438 C 188.171875 206.65625 188.0625 207.273438 188.0625 208.035156 L 186.957031 208.035156 C 186.921875 206.621094 186.703125 205.609375 186.453125 204.484375 C 184.714844 203.945312 182.867188 203.871094 181.058594 203.871094 C 179.464844 203.871094 177.765625 203.871094 176.570312 204.054688 C 176.425781 204.957031 176.386719 205.789062 176.386719 207.054688 L 176.386719 213.824219 C 184.28125 213.898438 184.789062 214.332031 184.824219 210.785156 L 186.015625 210.785156 L 186.015625 219.15625 L 184.824219 219.15625 C 184.824219 215.058594 184.574219 215.277344 176.386719 215.566406 L 176.386719 222.566406 "/>
<path style=" stroke:none;fill-rule:evenodd;fill:rgb(0%,30.980392%,63.921569%);fill-opacity:1;" d="M 201.433594 222.566406 C 201.433594 223.871094 201.46875 224.742188 201.609375 225.6875 C 202.953125 225.867188 204.796875 225.867188 206.535156 225.867188 C 208.492188 225.867188 210.480469 225.792969 212.359375 225.25 C 212.535156 224.707031 212.714844 224.054688 212.785156 223.402344 L 213.105469 221.40625 L 214.300781 221.40625 C 214.15625 222.167969 213.9375 223.183594 213.9375 224.34375 L 213.9375 227.363281 C 212.609375 227.546875 210.191406 227.507812 207.949219 227.546875 C 205.8125 227.4375 203.640625 227.378906 201.433594 227.378906 C 199.230469 227.378906 197.097656 227.4375 194.890625 227.546875 L 194.890625 226.449219 C 196.699219 226.378906 198.003906 225.613281 198.003906 223.183594 L 198.003906 206.546875 C 198.003906 203.722656 198.039062 203.46875 194.5625 203.289062 L 194.5625 202.195312 C 196.773438 202.304688 198.941406 202.355469 201.179688 202.355469 C 203.421875 202.355469 205.628906 202.304688 207.804688 202.195312 C 210.085938 202.230469 212.570312 202.195312 213.792969 202.378906 C 213.398438 203.582031 213.25 204.738281 213.214844 205.898438 C 213.214844 206.65625 213.105469 207.273438 213.105469 208.035156 L 212 208.035156 C 211.964844 206.621094 211.75 205.609375 211.496094 204.484375 C 209.757812 203.945312 207.914062 203.871094 206.101562 203.871094 C 204.507812 203.871094 202.808594 203.871094 201.609375 204.054688 C 201.46875 204.957031 201.433594 205.789062 201.433594 207.054688 L 201.433594 213.824219 C 209.324219 213.898438 209.828125 214.332031 209.867188 210.785156 L 211.058594 210.785156 L 211.058594 219.15625 L 209.867188 219.15625 C 209.867188 215.058594 209.613281 215.277344 201.433594 215.566406 L 201.433594 222.566406 "/>
<path style=" stroke:none;fill-rule:evenodd;fill:rgb(100%,94.901961%,0%);fill-opacity:1;" d="M 130.578125 97.332031 L 130.503906 97.332031 C 113.503906 97.332031 104.386719 101.3125 104.386719 101.3125 L 90.59375 78.964844 C 90.59375 78.964844 97.257812 77.914062 99.367188 87.035156 C 99.597656 83.46875 101.777344 82.0625 103.664062 83.296875 C 107.460938 86.492188 104.300781 90.28125 104.300781 90.28125 C 104.300781 90.28125 103.882812 86.855469 101.824219 88.398438 C 100.667969 89.238281 101.136719 90.277344 101.136719 90.277344 C 101.136719 90.277344 101.453125 91.355469 102.78125 92.53125 C 103.875 93.546875 110.710938 92.988281 112.605469 88.574219 C 113.304688 86.03125 112.777344 83.628906 111.710938 83.046875 C 110.644531 82.464844 109.929688 83.355469 109.804688 83.578125 C 109.675781 83.800781 109.742188 84.65625 109.742188 84.65625 C 109.742188 84.65625 108.675781 84.066406 108.878906 82.867188 C 108.917969 82.625 108.210938 83.050781 108.066406 83.085938 C 107.296875 83.28125 106.308594 82.671875 106.308594 82.671875 C 106.308594 82.671875 106.871094 81.675781 107.644531 81.464844 C 107.78125 81.425781 108.609375 81.457031 108.453125 81.265625 C 107.699219 80.3125 108.339844 79.28125 108.339844 79.28125 C 108.339844 79.28125 108.703125 80.058594 108.917969 80.191406 C 109.140625 80.324219 110.195312 80.757812 110.84375 79.726562 C 111.492188 78.695312 110.546875 77.882812 110.324219 77.753906 C 110.105469 77.625 109.25 77.691406 109.25 77.691406 C 109.25 77.691406 109.835938 76.625 111.035156 76.828125 C 111.273438 76.867188 110.851562 76.160156 110.816406 76.019531 C 110.621094 75.246094 111.144531 74.28125 111.144531 74.28125 C 111.144531 74.28125 112.109375 74.890625 112.316406 75.660156 C 112.355469 75.796875 112.328125 76.625 112.519531 76.472656 C 113.46875 75.710938 114.5 76.355469 114.5 76.355469 C 114.5 76.355469 113.71875 76.71875 113.589844 76.9375 C 113.460938 77.15625 113.023438 78.328125 114.09375 78.910156 C 115.160156 79.496094 115.871094 78.601562 116 78.382812 C 116.128906 78.160156 116.0625 77.304688 116.0625 77.304688 C 116.0625 77.304688 117.128906 77.890625 116.925781 79.089844 C 116.886719 79.335938 117.59375 78.90625 117.730469 78.875 C 118.507812 78.679688 119.496094 79.285156 119.496094 79.285156 C 119.496094 79.285156 118.925781 80.316406 118.15625 80.523438 C 118.015625 80.5625 117.1875 80.53125 117.34375 80.722656 C 118.101562 81.675781 117.457031 82.710938 117.457031 82.710938 C 117.457031 82.710938 117.097656 81.925781 116.878906 81.796875 C 116.660156 81.664062 115.605469 81.234375 114.957031 82.261719 C 114.308594 83.292969 114.824219 85.460938 116.925781 87.554688 C 120.371094 90.222656 127.1875 88.269531 127.554688 86.246094 C 128.085938 84.550781 127.804688 83.464844 127.804688 83.464844 C 127.804688 83.464844 127.667969 82.335938 126.25 82.210938 C 123.6875 81.941406 125.09375 85.097656 125.09375 85.097656 C 125.09375 85.097656 120.4375 83.480469 122.046875 78.78125 C 123.035156 76.753906 125.625 76.832031 127.652344 79.773438 C 124.777344 70.863281 130.554688 68.296875 130.554688 68.296875 L 130.558594 68.296875 C 130.558594 68.296875 136.339844 70.863281 133.460938 79.773438 C 135.492188 76.832031 138.082031 76.753906 139.070312 78.78125 C 140.679688 83.480469 136.019531 85.097656 136.019531 85.097656 C 136.019531 85.097656 137.425781 81.941406 134.867188 82.210938 C 133.445312 82.335938 133.3125 83.464844 133.3125 83.464844 C 133.3125 83.464844 133.03125 84.550781 133.5625 86.246094 C 133.925781 88.269531 140.761719 90.222656 144.207031 87.554688 C 146.308594 85.460938 146.8125 83.292969 146.164062 82.261719 C 145.511719 81.234375 144.457031 81.664062 144.238281 81.796875 C 144.019531 81.925781 143.660156 82.710938 143.660156 82.710938 C 143.660156 82.710938 143.015625 81.675781 143.773438 80.722656 C 143.925781 80.53125 143.101562 80.5625 142.964844 80.523438 C 142.191406 80.316406 141.625 79.285156 141.625 79.285156 C 141.625 79.285156 142.613281 78.679688 143.382812 78.875 C 143.519531 78.90625 144.230469 79.335938 144.191406 79.089844 C 143.988281 77.890625 145.054688 77.304688 145.054688 77.304688 C 145.054688 77.304688 144.988281 78.160156 145.113281 78.382812 C 145.246094 78.601562 145.953125 79.496094 147.023438 78.910156 C 148.089844 78.328125 147.660156 77.15625 147.527344 76.9375 C 147.398438 76.71875 146.621094 76.355469 146.621094 76.355469 C 146.621094 76.355469 147.648438 75.710938 148.601562 76.472656 C 148.792969 76.625 148.761719 75.796875 148.800781 75.660156 C 149.007812 74.890625 149.96875 74.28125 149.96875 74.28125 C 149.96875 74.28125 150.496094 75.246094 150.300781 76.019531 C 150.265625 76.160156 149.839844 76.867188 150.082031 76.828125 C 151.277344 76.625 151.871094 77.691406 151.871094 77.691406 C 151.871094 77.691406 151.011719 77.625 150.792969 77.753906 C 150.570312 77.882812 149.625 78.695312 150.277344 79.726562 C 150.921875 80.757812 151.980469 80.324219 152.199219 80.191406 C 152.417969 80.058594 152.777344 79.28125 152.777344 79.28125 C 152.777344 79.28125 153.417969 80.3125 152.664062 81.265625 C 152.507812 81.457031 153.335938 81.425781 153.476562 81.464844 C 154.242188 81.675781 154.808594 82.671875 154.808594 82.671875 C 154.808594 82.671875 153.820312 83.28125 153.046875 83.085938 C 152.910156 83.050781 152.199219 82.625 152.242188 82.867188 C 152.445312 84.066406 151.378906 84.65625 151.378906 84.65625 C 151.378906 84.65625 151.445312 83.800781 151.316406 83.578125 C 151.1875 83.355469 150.476562 82.464844 149.410156 83.046875 C 148.339844 83.628906 147.8125 86.03125 148.515625 88.574219 C 150.40625 92.988281 157.242188 93.546875 158.335938 92.53125 C 159.664062 91.355469 159.980469 90.277344 159.980469 90.277344 C 159.980469 90.277344 160.445312 89.238281 159.292969 88.398438 C 157.230469 86.855469 156.816406 90.28125 156.816406 90.28125 C 156.816406 90.28125 153.65625 86.492188 157.453125 83.296875 C 159.339844 82.0625 161.523438 83.46875 161.746094 87.035156 C 163.863281 77.914062 170.523438 78.964844 170.523438 78.964844 L 156.726562 101.3125 C 156.726562 101.3125 147.582031 97.332031 130.578125 97.332031 "/>
<path style=" stroke:none;fill-rule:evenodd;fill:rgb(93.72549%,24.313725%,20%);fill-opacity:1;" d="M 115.527344 94.109375 C 115.351562 93.121094 116.625 92.066406 118.378906 91.761719 C 120.125 91.453125 121.683594 92.003906 121.859375 92.992188 C 122.035156 93.980469 120.753906 95.03125 119.007812 95.335938 C 117.257812 95.644531 115.699219 95.097656 115.527344 94.109375 "/>
<path style=" stroke:none;fill-rule:evenodd;fill:rgb(93.72549%,24.313725%,20%);fill-opacity:1;" d="M 145.636719 94.136719 C 145.8125 93.152344 144.53125 92.101562 142.785156 91.789062 C 141.035156 91.484375 139.476562 92.035156 139.300781 93.023438 C 139.132812 94.011719 140.40625 95.0625 142.15625 95.367188 C 143.90625 95.679688 145.464844 95.125 145.636719 94.136719 "/>
<path style=" stroke:none;fill-rule:evenodd;fill:rgb(0%,30.980392%,63.921569%);fill-opacity:1;" d="M 150.316406 95.011719 L 154.234375 94.351562 L 156.910156 97.242188 L 152.996094 97.898438 L 150.316406 95.011719 "/>
<path style=" stroke:none;fill-rule:evenodd;fill:rgb(0%,30.980392%,63.921569%);fill-opacity:1;" d="M 110.882812 95.09375 L 106.96875 94.433594 L 104.289062 97.324219 L 108.203125 97.984375 L 110.882812 95.09375 "/>
<path style=" stroke:none;fill-rule:nonzero;fill:rgb(0%,30.980392%,63.921569%);fill-opacity:1;" d="M 126.777344 90.984375 L 134.363281 90.984375 L 134.363281 94.699219 L 126.777344 94.699219 Z M 126.777344 90.984375 "/>
<path style=" stroke:none;fill-rule:evenodd;fill:rgb(100%,94.901961%,0%);fill-opacity:1;" d="M 102.703125 92.625 C 103.167969 92.328125 103.304688 91.703125 103.003906 91.234375 C 102.703125 90.765625 102.082031 90.632812 101.617188 90.929688 L 98.617188 92.855469 C 98.152344 93.152344 98.015625 93.777344 98.3125 94.246094 C 98.613281 94.714844 99.238281 94.847656 99.703125 94.550781 L 102.703125 92.625 "/>
<path style=" stroke:none;fill-rule:evenodd;fill:rgb(100%,94.901961%,0%);fill-opacity:1;" d="M 158.417969 92.738281 C 157.949219 92.4375 157.816406 91.8125 158.113281 91.347656 C 158.414062 90.878906 159.039062 90.742188 159.503906 91.042969 L 162.5 92.964844 C 162.96875 93.265625 163.105469 93.886719 162.804688 94.355469 C 162.503906 94.824219 161.882812 94.960938 161.414062 94.660156 L 158.417969 92.738281 "/>
<path style=" stroke:none;fill-rule:evenodd;fill:rgb(100%,94.901961%,0%);fill-opacity:1;" d="M 133.4375 86.96875 C 133.996094 86.96875 134.445312 86.515625 134.445312 85.957031 C 134.445312 85.402344 133.996094 84.953125 133.4375 84.953125 L 127.714844 84.949219 C 127.160156 84.949219 126.707031 85.402344 126.707031 85.957031 C 126.707031 86.515625 127.160156 86.964844 127.710938 86.964844 L 133.4375 86.96875 "/>
<path style=" stroke:none;fill-rule:evenodd;fill:rgb(0%,30.980392%,63.921569%);fill-opacity:1;" d="M 192.292969 23.136719 C 193.722656 22.183594 195.050781 21.667969 192.308594 20.410156 L 192.648438 19.734375 C 193.421875 20.207031 194.191406 20.632812 195.023438 21.050781 C 195.851562 21.464844 196.65625 21.828125 197.5 22.164062 L 197.164062 22.835938 C 195.769531 22.027344 194.925781 22.761719 193.132812 23.882812 C 193.132812 23.882812 188.304688 26.699219 187.28125 27.519531 C 186.71875 27.96875 186.394531 28.507812 186.128906 29.046875 L 184.628906 32.050781 C 183.757812 33.800781 183.65625 33.945312 185.753906 35.136719 L 185.417969 35.808594 C 184.371094 35.203125 183.335938 34.640625 182.238281 34.089844 C 181.140625 33.542969 180.070312 33.050781 179.019531 32.609375 L 179.359375 31.9375 C 181.570312 32.902344 181.625 32.734375 182.496094 30.984375 L 184.140625 27.6875 C 184.230469 27.507812 184.367188 27.238281 184.378906 26.9375 L 184.03125 20.878906 L 183.804688 17.761719 C 183.589844 16.246094 183.878906 16.398438 182.734375 15.601562 L 182.320312 15.363281 L 182.65625 14.6875 C 183.609375 15.253906 184.582031 15.777344 185.589844 16.285156 C 186.601562 16.789062 187.605469 17.25 188.625 17.671875 L 188.289062 18.351562 C 186.160156 17.226562 186.132812 17.785156 186.070312 18.308594 L 186.117188 19.332031 L 186.460938 26.632812 L 190.59375 24.132812 L 192.292969 23.136719 "/>
</g>
</svg>
